HIERARCHY
ROOT pelvis
{
  OFFSET 0 100 0
  CHANNELS 6 Xposition Yposition Zposition Zrotation Xrotation Yrotation
  JOINT pelvis_right_femur
  {
    OFFSET -10.78128 -3.44521 -0.5502486
    CHANNELS 3 Zrotation Xrotation Yrotation
    JOINT right_femur_tibia
    {
      OFFSET -0.8047443 -44.0398 -0.1307829
      CHANNELS 3 Zrotation Xrotation Yrotation
      JOINT right_tibia_foot
      {
        OFFSET 3.006224 -47.83518 -5
        CHANNELS 3 Zrotation Xrotation Yrotation
        End Site
        {
          OFFSET 0 -5 15
        }
      }
    }
  }
  JOINT pelvis_left_femur
  {
    OFFSET 10.78128 -3.44521 -0.5502486
    CHANNELS 3 Zrotation Xrotation Yrotation
    JOINT left_femur_tibia
    {
      OFFSET 0.8047443 -44.0398 -0.1307829
      CHANNELS 3 Zrotation Xrotation Yrotation
      JOINT left_tibia_foot
      {
        OFFSET -4.370144 -48.10324 -4.275266
        CHANNELS 3 Zrotation Xrotation Yrotation
        End Site
        {
          OFFSET 0 -5 15
        }
      }
    }
  }
  JOINT pelvis_spine1
  {
    OFFSET 0 6.468898 -3.129235
    CHANNELS 3 Zrotation Xrotation Yrotation
    JOINT spine1
    {
      OFFSET 0 23.15396 4.99043
      CHANNELS 3 Zrotation Xrotation Yrotation
      JOINT spine2
      {
        OFFSET 0 20.79997 -5.064912
        CHANNELS 3 Zrotation Xrotation Yrotation
        JOINT neck
        {
          OFFSET 0 14.38658 9.616178
          CHANNELS 3 Zrotation Xrotation Yrotation
          End Site
          {
            OFFSET 0 20 0
          }
        }
      }
      JOINT right_manubrium
      {
        OFFSET -5.722621 16.35077 3.967754
        CHANNELS 3 Zrotation Xrotation Yrotation
        JOINT right_clavicle
        {
          OFFSET -13.16364 1.694482 -4.693211
          CHANNELS 3 Zrotation Xrotation Yrotation
          JOINT right_humerus
          {
            OFFSET -28.5034 -0.3100689 -2.792744
            CHANNELS 3 Zrotation Xrotation Yrotation
            JOINT right_radius
            {
              OFFSET -25.15693 0.02248979 -1.271978
              CHANNELS 3 Zrotation Xrotation Yrotation
              End Site
              {
                OFFSET -15 0 0
              }
            }
          }
        }
      }
      JOINT left_manubrium
      {
        OFFSET 5.722621 16.35077 3.967754
        CHANNELS 3 Zrotation Xrotation Yrotation
        JOINT left_clavicle
        {
          OFFSET 13.16364 1.694482 -4.693211
          CHANNELS 3 Zrotation Xrotation Yrotation
          JOINT left_humerus
          {
            OFFSET 29.39168 -1.063119 -2.237045
            CHANNELS 3 Zrotation Xrotation Yrotation
            JOINT left_radius
            {
              OFFSET 24.59957 -0.9528479 0.9047498
              CHANNELS 3 Zrotation Xrotation Yrotation
              End Site
              {
                OFFSET 15 -0 -0
              }
            }
          }
        }
      }
    }
  }
}
MOTION
Frames: 15
Frame Time: 0.0416666666667
0 103.5113 0 -0.1077579 -0.7814489 0.07438931 4.627348 -21.93845 8.056341 -0 36.84703 -0 -6.699461 -13.77858 -3.061179 -6.05611 11.6795 -21.4562 -0 6.227215 -0 8.000095 -18.10699 24.66101 -3.12962 -2.427729 3.510789 2.706746 9.137096 -7.601344 1.469014 22.21276 6.718033 2.941962 -24.53386 9.522373 5.86919 -19.0332 11.58772 85.68242 33.50589 -18.68046 -0 0 14.87571 -8.019319 8.369847 4.753626 6.033121 -19.74835 -1.635978 -93.01117 25.87905 20.60521 0 0 -15.15445 10.11285 18.19448 2.305394
0.2401257 104.3162 2.120075 -0.1908655 -0.6571904 0.1588701 4.707447 -22.57802 7.737853 -0 35.89292 -0 -6.715075 -13.27011 -2.949677 -5.965295 11.81528 -21.11674 -0 6.345566 -0 7.704636 -18.44329 24.26309 -3.094983 -2.344106 3.419315 2.772803 9.096718 -7.654963 1.451779 22.16489 6.747903 2.979301 -24.5645 9.492164 5.816598 -18.88316 11.59268 85.6873 33.28171 -18.78933 -0 0 14.65892 -8.276138 8.45021 4.850845 6.162991 -19.88807 -1.612524 -92.84814 25.64643 20.29512 0 0 -15.25856 10.28017 18.22927 1.999291
0.5228172 104.9523 4.845769 -0.6491783 2.525498 0.3678763 6.538781 -28.74451 7.767065 -0 25.47158 -0 -5.635777 -10.80362 -1.91875 -6.114234 12.48729 -20.34375 -0 6.853757 -0 7.857396 -20.81169 23.58288 -3.21367 -2.187333 3.84611 3.709087 8.877686 -8.190519 1.518267 20.69309 7.129048 3.434894 -26.56989 10.00089 6.11225 -18.56085 11.52825 85.29911 35.06397 -19.92882 -0 0 14.59873 -7.332768 8.981392 4.591774 7.269127 -20.31356 -0.5959668 -92.77064 23.98784 19.94447 0 0 -17.07849 11.76561 16.0918 0.04093474
0.8229324 105.4523 8.040555 -1.072219 3.966713 0.7017688 7.631445 -31.56169 7.752365 -0 21.36072 -0 -5.50204 -8.595949 -1.442298 -6.029895 13.00344 -19.45368 -0 8.034944 -0 7.16183 -21.56426 22.49511 -2.984632 -2.030735 3.849117 4.052471 8.871369 -8.477641 1.434051 19.93132 7.46488 3.713211 -27.50512 10.20449 6.142573 -18.32476 11.51388 85.56328 35.88134 -20.67693 -0 0 14.09192 -7.152532 9.295031 4.664999 7.655208 -20.7031 -0.2697997 -92.38513 23.17061 19.57134 0 0 -18.57102 12.17465 14.66846 -0.4638124
1.130255 106.0267 12.06938 -1.882387 5.440798 1.264661 9.132961 -34.32739 7.597876 -0 17.53702 -0 -5.967343 -5.319807 -0.9453732 -5.63762 13.80514 -17.78182 -0 11.3944 -0 4.853558 -21.67222 19.83136 -2.234256 -1.737499 3.547741 4.319665 8.856804 -8.819634 1.204259 19.06309 7.973564 4.049581 -28.45945 10.32371 5.996991 -17.83725 11.48524 86.41159 36.5188 -21.81065 -0 0 12.90839 -7.245689 9.6927 4.944047 7.83567 -21.26388 -0.1168538 -91.66169 22.44188 18.98654 0 0 -20.73071 11.95991 12.80165 -0.1922415
1.451594 106.7546 16.84713 -2.675546 6.150267 1.946536 10.23449 -35.06511 7.452625 -0 16.14214 -0 -6.817572 -3.110622 -0.6867431 -5.143066 14.18504 -16.26801 -0 16.05828 -0 2.127355 -20.44401 16.91804 -1.26546 -1.499944 3.175512 4.348396 8.849968 -9.004483 0.94163 18.55342 8.35918 4.226522 -28.94996 10.27089 5.762298 -17.38653 11.46449 87.43576 36.76007 -22.72413 -0 0 11.71345 -7.439097 9.939975 5.276991 7.567845 -21.5913 -0.2673463 -91.03609 22.2423 18.68729 0 0 -22.3497 11.12449 11.34338 0.9376127
1.794628 107.8161 22.38225 -3.466158 6.227868 2.641743 10.96938 -33.79126 7.118249 -0 16.23718 -0 -8.071793 -1.868287 -0.5701484 -4.490212 13.83515 -14.66349 -0 23.32026 -0 -1.023449 -17.51856 13.565 -0.01552079 -1.317116 2.809392 4.192316 8.889766 -9.073275 0.6220076 18.34411 8.621401 4.259578 -29.07245 9.995522 5.420433 -16.90845 11.48395 88.68317 36.65433 -23.5652 -0 0 10.35593 -7.840212 10.12352 5.725891 6.83915 -21.74857 -0.7262374 -90.41658 22.338 18.61658 0 0 -23.54253 9.802425 10.10231 2.770699
2.17753 109.338 28.47872 -3.991519 5.719188 3.172574 11.15422 -30.53811 6.687938 -0 17.24482 -0 -9.343474 -1.920591 -0.5811976 -3.855542 12.25228 -13.295 -0 32.44678 -0 -3.486541 -13.32727 10.7737 1.146081 -1.247707 2.722843 3.935525 9.092221 -9.030261 0.3200613 18.43225 8.672634 4.163286 -28.90178 9.532252 5.124289 -16.59988 11.60761 89.78706 36.45436 -24.15356 -0 0 9.240598 -8.404946 10.29466 6.246639 5.777792 -21.70893 -1.384373 -90.00125 22.51503 18.99817 0 0 -23.98639 8.388684 9.204246 4.819427
2.601252 111.4138 34.8741 -4.106446 4.693447 3.37956 10.78725 -25.52513 6.153889 -0 18.24513 -0 -10.48459 -2.959717 -0.6267441 -3.321595 9.00847 -12.06371 -0 43.35275 -0 -4.799811 -8.408187 8.891021 1.98578 -1.275335 3.101909 3.635672 9.623511 -8.914686 0.06442854 18.75549 8.501276 3.995597 -28.53073 8.902145 4.902855 -16.59446 11.89518 90.6381 36.26999 -24.49869 -0 0 8.484631 -9.312371 10.5647 6.882617 4.525462 -21.64942 -2.176732 -89.77082 22.44646 19.84731 0 0 -23.79369 7.234754 8.619787 6.616657
3.04952 114.0256 41.2335 -3.717877 3.342035 3.194917 9.965844 -19.49497 5.611941 -0 18.34646 -0 -11.29295 -4.3846 -0.5702666 -2.981399 3.997973 -10.90421 -0 54.43562 -0 -4.684107 -3.918277 8.198275 2.227415 -1.338398 4.047059 3.348575 10.59347 -8.759874 -0.1114763 19.16879 8.148927 3.838628 -28.10096 8.195638 4.80219 -17.06567 12.37381 91.05497 36.25506 -24.50415 -0 0 8.333888 -10.65285 11.03188 7.661786 3.334642 -21.77091 -2.976851 -89.72082 21.87945 21.15489 0 0 -23.21036 6.664264 8.295969 7.693957
3.496358 117.0018 47.24011 -2.86836 1.851233 2.677355 8.836372 -13.11698 5.103281 -0 17.05589 -0 -11.69119 -5.626354 -0.3014817 -2.762704 -2.655079 -9.631171 -0 63.56702 -0 -3.304614 -0.76225 8.633592 1.796186 -1.368 5.487676 3.059708 11.99036 -8.562926 -0.2227097 19.52022 7.691536 3.733949 -27.66644 7.474596 4.799423 -18.1255 13.03105 90.92221 36.44798 -23.98367 -0 0 8.993838 -12.48292 11.75798 8.660871 2.414252 -22.21282 -3.695012 -89.77292 20.7003 22.84311 0 0 -22.60076 6.789338 8.113673 7.839553
3.931137 120.0044 52.68926 -1.769246 0.4842757 2.004543 7.62687 -7.070164 4.66405 -0 14.44878 -0 -11.62999 -6.478906 0.1820127 -2.37472 -10.35597 -8.071578 -0 67.92096 -0 -1.141782 0.6194005 9.914561 0.8715516 -1.326949 7.130316 2.722639 13.57523 -8.301816 -0.3300489 19.66283 7.225266 3.662299 -27.19437 6.776085 4.855422 -19.75072 13.79402 90.09649 36.8151 -22.65004 -0 0 10.64836 -14.68632 12.72907 9.957456 1.93019 -22.9143 -4.222823 -89.8295 19.00141 24.76068 0 0 -22.27047 7.476728 7.937678 7.141601
4.381881 122.5959 57.56778 -0.7599541 -0.4817472 1.373662 6.604855 -1.816304 4.313107 -0 11.06496 -0 -11.09276 -7.305964 0.7734119 -1.368247 -18.16377 -6.069148 -0 65.2862 -0 1.160507 0.4971451 11.57594 -0.1439433 -1.224246 8.55963 2.311435 14.95588 -7.979224 -0.5107082 19.50801 6.82475 3.549192 -26.60383 6.109554 4.92498 -21.77148 14.54097 88.45129 37.23298 -20.26787 -0 0 13.35688 -17.02849 13.85677 11.58903 1.93325 -23.62661 -4.44978 -89.80045 17.03458 26.71492 0 0 -22.29238 8.413078 7.69316 5.931454
4.911112 124.3915 62.06418 -0.1965337 -0.8433879 0.8968683 5.987704 2.38248 4.042802 -0 7.649523 -0 -10.12152 -8.815531 1.342353 0.5713197 -24.89666 -3.599306 -0 55.33054 -0 2.966102 -0.4358287 13.08936 -0.8134191 -1.096696 9.409057 1.878566 15.73237 -7.654674 -0.7957766 19.06968 6.52595 3.318057 -25.87683 5.511873 4.965846 -23.89425 15.10523 86.00824 37.50312 -16.87948 -0 0 16.90228 -19.21599 14.97297 13.46741 2.331342 -24.03523 -4.294409 -89.66036 15.1828 28.48379 0 0 -22.43042 9.23209 7.403502 4.652465
5.578117 125.2115 66.48398 -0.2630407 -0.610627 0.5674187 5.802215 5.583131 3.80218 -0 4.871924 -0 -8.865012 -11.53559 1.830363 3.235415 -29.57537 -0.9642667 -0 40.2787 -0 3.850946 -1.496213 14.09903 -0.9118857 -0.998183 9.559855 1.529094 15.68397 -7.398636 -1.13031 18.49482 6.32392 2.947084 -25.10553 5.067599 4.923005 -25.78876 15.31211 83.07617 37.41407 -12.91529 -0 0 20.73951 -21.00233 15.8525 15.36112 2.910282 -23.91901 -3.762055 -89.50076 13.87479 29.8807 0 0 -22.2325 9.62904 7.148247 3.740129
